# Wind Turbine Blade - 5MW NACA64-A17

v 3.038973 -0.963866 2.000000
v 3.005942 -0.942682 2.000000
v 2.885164 -0.866439 2.000000
v 2.680183 -0.741163 2.000000
v 2.399025 -0.577083 2.000000
v 2.053373 -0.386724 2.000000
v 1.717093 -0.213146 2.000000
v 1.293626 -0.011498 2.000000
v 0.855104 0.174857 2.000000
v 0.417697 0.330911 2.000000
v 0.004062 0.440025 2.000000
v -0.362147 0.495874 2.000000
v -0.622660 0.501604 2.000000
v -0.849282 0.463723 2.000000
v -0.981410 0.384765 2.000000
v -1.013047 0.272727 2.000000
v -0.941592 0.147437 2.000000
v -0.772024 0.016832 2.000000
v -0.555808 -0.095248 2.000000
v -0.232330 -0.222296 2.000000
v 0.152532 -0.343601 2.000000
v 0.580496 -0.460000 2.000000
v 1.034894 -0.570253 2.000000
v 1.488565 -0.670812 2.000000
v 1.859112 -0.748688 2.000000
v 2.250457 -0.828027 2.000000
v 2.578633 -0.892457 2.000000
v 2.826546 -0.939698 2.000000
v 2.980956 -0.968382 2.000000
v 3.033400 -0.977978 2.000000
v 3.402956 -1.576999 5.184211
v 3.367562 -1.547363 5.184211
v 3.237963 -1.440419 5.184211
v 3.017398 -1.263724 5.184211
v 2.713711 -1.030412 5.184211
v 2.338673 -0.756837 5.184211
v 1.972074 -0.504238 5.184211
v 1.507907 -0.205910 5.184211
v 1.023897 0.076813 5.184211
v 0.536678 0.324009 5.184211
v 0.070216 0.512890 5.184211
v -0.348827 0.632556 5.184211
v -0.651985 0.678007 5.184211
v -0.922081 0.667522 5.184211
v -1.088020 0.595042 5.184211
v -1.141610 0.469005 5.184211
v -1.076868 0.312163 5.184211
v -0.898421 0.134519 5.184211
v -0.662783 -0.028447 5.184211
v -0.304198 -0.224841 5.184211
v 0.126872 -0.423668 5.184211
v 0.608971 -0.623183 5.184211
v 1.122832 -0.819458 5.184211
v 1.637288 -1.004314 5.184211
v 2.058116 -1.150331 5.184211
v 2.502997 -1.301148 5.184211
v 2.876381 -1.425169 5.184211
v 3.158657 -1.517187 5.184211
v 3.334580 -1.573637 5.184211
v 3.394353 -1.592638 5.184211
v 3.402956 -1.576999 8.368421
v 3.367562 -1.547363 8.368421
v 3.237963 -1.440419 8.368421
v 3.017398 -1.263724 8.368421
v 2.713711 -1.030412 8.368421
v 2.338673 -0.756837 8.368421
v 1.972074 -0.504238 8.368421
v 1.507907 -0.205910 8.368421
v 1.023897 0.076813 8.368421
v 0.536678 0.324009 8.368421
v 0.070216 0.512890 8.368421
v -0.348827 0.632556 8.368421
v -0.651985 0.678007 8.368421
v -0.922081 0.667522 8.368421
v -1.088020 0.595042 8.368421
v -1.141610 0.469005 8.368421
v -1.076868 0.312163 8.368421
v -0.898421 0.134519 8.368421
v -0.662783 -0.028447 8.368421
v -0.304198 -0.224841 8.368421
v 0.126872 -0.423668 8.368421
v 0.608971 -0.623183 8.368421
v 1.122832 -0.819458 8.368421
v 1.637288 -1.004314 8.368421
v 2.058116 -1.150331 8.368421
v 2.502997 -1.301148 8.368421
v 2.876381 -1.425169 8.368421
v 3.158657 -1.517187 8.368421
v 3.334580 -1.573637 8.368421
v 3.394353 -1.592638 8.368421
v 3.533743 -1.256858 11.552632
v 3.495770 -1.230608 11.552632
v 3.356872 -1.136056 11.552632
v 3.120969 -0.980428 11.552632
v 2.797084 -0.776079 11.552632
v 2.398442 -0.538210 11.552632
v 2.010135 -0.320452 11.552632
v 1.520463 -0.066145 11.552632
v 1.012469 0.170795 11.552632
v 0.504553 0.372064 11.552632
v 0.022677 0.517177 11.552632
v -0.405607 0.597738 11.552632
v -0.711662 0.615072 11.552632
v -0.979645 0.579755 11.552632
v -1.138202 0.492298 11.552632
v -1.179956 0.361860 11.552632
v -1.101043 0.211649 11.552632
v -0.906992 0.051197 11.552632
v -0.657345 -0.089373 11.552632
v -0.282196 -0.251904 11.552632
v 0.165356 -0.410181 11.552632
v 0.663782 -0.564443 11.552632
v 1.193537 -0.712554 11.552632
v 1.722832 -0.849239 11.552632
v 2.155321 -0.955873 11.552632
v 2.612203 -1.065073 11.552632
v 2.995422 -1.154175 11.552632
v 3.284973 -1.219802 11.552632
v 3.465348 -1.259808 11.552632
v 3.526617 -1.273224 11.552632
v 3.649623 -0.864454 14.736842
v 3.609017 -0.842497 14.736842
v 3.460646 -0.763637 14.736842
v 3.209195 -0.634632 14.736842
v 2.864977 -0.466779 14.736842
v 2.442797 -0.273750 14.736842
v 2.033080 -0.099584 14.736842
v 1.518620 0.099870 14.736842
v 0.987840 0.280065 14.736842
v 0.461023 0.424810 14.736842
v -0.033793 0.516570 14.736842
v -0.468304 0.549999 14.736842
v -0.774427 0.533892 14.736842
v -1.036967 0.469594 14.736842
v -1.185055 0.365386 14.736842
v -1.212351 0.231177 14.736842
v -1.117546 0.090455 14.736842
v -0.907172 -0.047905 14.736842
v -0.643698 -0.160445 14.736842
v -0.253077 -0.281144 14.736842
v 0.209052 -0.389729 14.736842
v 0.721316 -0.488780 14.736842
v 1.264053 -0.578304 14.736842
v 1.805087 -0.656520 14.736842
v 2.246618 -0.715410 14.736842
v 2.712676 -0.774192 14.736842
v 3.103320 -0.821021 14.736842
v 3.398298 -0.854717 14.736842
v 3.581957 -0.874837 14.736842
v 3.644323 -0.881499 14.736842
v 3.709890 -0.551131 17.921053
v 3.667565 -0.532705 17.921053
v 3.513028 -0.466741 17.921053
v 3.251522 -0.359574 17.921053
v 2.894283 -0.221585 17.921053
v 2.457224 -0.065137 17.921053
v 2.034187 0.073575 17.921053
v 1.504637 0.228582 17.921053
v 0.960462 0.363012 17.921053
v 0.423248 0.462457 17.921053
v -0.077576 0.511829 17.921053
v -0.513356 0.508206 17.921053
v -0.817002 0.466139 17.921053
v -1.073128 0.379759 17.921053
v -1.211822 0.263342 17.921053
v -1.227613 0.127298 17.921053
v -1.121190 -0.004857 17.921053
v -0.899818 -0.124836 17.921053
v -0.627732 -0.214574 17.921053
v -0.228266 -0.301637 17.921053
v 0.241420 -0.370550 17.921053
v 0.760249 -0.425704 17.921053
v 1.308631 -0.468775 17.921053
v 1.854355 -0.500723 17.921053
v 2.299294 -0.521873 17.921053
v 2.768661 -0.540830 17.921053
v 3.161872 -0.554287 17.921053
v 3.458646 -0.562791 17.921053
v 3.643351 -0.567228 17.921053
v 3.706057 -0.568565 17.921053
v 3.430737 -0.334988 21.105263
v 3.391037 -0.320024 21.105263
v 3.246147 -0.266594 21.105263
v 3.001171 -0.180271 21.105263
v 2.666902 -0.070066 21.105263
v 2.258513 0.053406 21.105263
v 1.863813 0.161243 21.105263
v 1.370593 0.279131 21.105263
v 0.864896 0.377458 21.105263
v 0.367200 0.443991 21.105263
v -0.094786 0.466239 21.105263
v -0.494627 0.442839 21.105263
v -0.771408 0.390237 21.105263
v -1.002530 0.299149 21.105263
v -1.124476 0.185900 21.105263
v -1.132703 0.060296 21.105263
v -1.028929 -0.056107 21.105263
v -0.820202 -0.156040 21.105263
v -0.566318 -0.225877 21.105263
v -0.195632 -0.287391 21.105263
v 0.238672 -0.329011 21.105263
v 0.717451 -0.355736 21.105263
v 1.222801 -0.370009 21.105263
v 1.725199 -0.374196 21.105263
v 2.134588 -0.373112 21.105263
v 2.566298 -0.368892 21.105263
v 2.927851 -0.363130 21.105263
v 3.200655 -0.357264 21.105263
v 3.370402 -0.352828 21.105263
v 3.428022 -0.351167 21.105263
v 3.714038 -0.522448 24.289474
v 3.671572 -0.504350 24.289474
v 3.516529 -0.439582 24.289474
v 3.254203 -0.334439 24.289474
v 2.895909 -0.199214 24.289474
v 2.457654 -0.046148 24.289474
v 2.033558 0.089291 24.289474
v 1.502826 0.240201 24.289474
v 0.957628 0.370422 24.289474
v 0.419662 0.465713 24.289474
v -0.081529 0.511214 24.289474
v -0.517268 0.504224 24.289474
v -0.820579 0.459812 24.289474
v -1.076030 0.371455 24.289474
v -1.213821 0.253970 24.289474
v -1.228560 0.117808 24.289474
v -1.121119 -0.013520 24.289474
v -0.898826 -0.131785 24.289474
v -0.626056 -0.219418 24.289474
v -0.225928 -0.303392 24.289474
v 0.244276 -0.368674 24.289474
v 0.763515 -0.419817 24.289474
v 1.312214 -0.458649 24.289474
v 1.858169 -0.486380 24.289474
v 2.303258 -0.504090 24.289474
v 2.772758 -0.519421 24.289474
v 3.166061 -0.529839 24.289474
v 3.462892 -0.536049 24.289474
v 3.647625 -0.539059 24.289474
v 3.710340 -0.539911 24.289474
v 3.721167 -0.468989 27.473684
v 3.678444 -0.451503 27.473684
v 3.522487 -0.388971 27.473684
v 3.258676 -0.287611 27.473684
v 2.898474 -0.157553 27.473684
v 2.458064 -0.010804 27.473684
v 2.032064 0.118523 27.473684
v 1.499216 0.261786 27.473684
v 0.952203 0.384154 27.473684
v 0.412922 0.471700 27.473684
v -0.088871 0.509989 27.473684
v -0.524465 0.496734 27.473684
v -0.827106 0.447965 27.473684
v -1.081260 0.355944 27.473684
v -1.217347 0.236490 27.473684
v -1.230127 0.100130 27.473684
v -1.120809 -0.029640 27.473684
v -0.896838 -0.144696 27.473684
v -0.622836 -0.228398 27.473684
v -0.221542 -0.306609 27.473684
v 0.249552 -0.365123 27.473684
v 0.769473 -0.408794 27.473684
v 1.318673 -0.439733 27.473684
v 1.864971 -0.459610 27.473684
v 2.310268 -0.470919 27.473684
v 2.779940 -0.479497 27.473684
v 3.173352 -0.484258 27.473684
v 3.470242 -0.486200 27.473684
v 3.655000 -0.486553 27.473684
v 3.717720 -0.486503 27.473684
v 3.552513 -0.384063 30.657895
v 3.511523 -0.368126 30.657895
v 3.361911 -0.311188 30.657895
v 3.108910 -0.219080 30.657895
v 2.763608 -0.101259 30.657895
v 2.341621 0.031110 30.657895
v 1.933655 0.147125 30.657895
v 1.423676 0.274616 30.657895
v 0.900555 0.381965 30.657895
v 0.385386 0.456274 30.657895
v -0.093244 0.484295 30.657895
v -0.507948 0.464332 30.657895
v -0.795409 0.412780 30.657895
v -1.035954 0.320845 30.657895
v -1.163573 0.204766 30.657895
v -1.173449 0.074661 30.657895
v -1.067132 -0.047111 30.657895
v -0.851850 -0.152936 30.657895
v -0.589438 -0.228052 30.657895
v -0.205867 -0.295793 30.657895
v 0.243862 -0.343596 30.657895
v 0.739850 -0.376439 30.657895
v 1.263514 -0.396659 30.657895
v 1.784227 -0.406393 30.657895
v 2.208588 -0.409665 30.657895
v 2.656120 -0.409925 30.657895
v 3.030947 -0.407834 30.657895
v 3.313783 -0.404683 30.657895
v 3.489781 -0.401907 30.657895
v 3.549524 -0.400804 30.657895
v 2.299709 -0.003407 33.842105
v 2.272389 0.003996 33.842105
v 2.172757 0.030227 33.842105
v 2.004559 0.071911 33.842105
v 1.775538 0.123754 33.842105
v 1.496447 0.179674 33.842105
v 1.227445 0.226086 33.842105
v 0.892375 0.272882 33.842105
v 0.550268 0.305890 33.842105
v 0.215505 0.318297 33.842105
v -0.092716 0.303573 33.842105
v -0.356752 0.262503 33.842105
v -0.537202 0.209898 33.842105
v -0.684871 0.134650 33.842105
v -0.758624 0.051656 33.842105
v -0.756067 -0.032282 33.842105
v -0.679719 -0.102958 33.842105
v -0.534725 -0.155995 33.842105
v -0.361664 -0.186163 33.842105
v -0.111567 -0.203345 33.842105
v 0.179508 -0.203253 33.842105
v 0.499166 -0.190431 33.842105
v 0.835676 -0.167643 33.842105
v 1.169581 -0.138344 33.842105
v 1.441383 -0.111485 33.842105
v 1.727808 -0.081117 33.842105
v 1.967544 -0.054205 33.842105
v 2.148336 -0.032891 33.842105
v 2.260780 -0.019107 33.842105
v 2.298939 -0.014324 33.842105
v 2.977715 -0.224775 37.026316
v 2.943046 -0.212572 37.026316
v 2.816540 -0.169056 37.026316
v 2.602724 -0.098959 37.026316
v 2.311116 -0.009880 37.026316
v 1.955062 0.089279 37.026316
v 1.611161 0.175156 37.026316
v 1.181741 0.267862 37.026316
v 0.741889 0.343389 37.026316
v 0.309571 0.391532 37.026316
v -0.090975 0.402000 37.026316
v -0.436828 0.374117 37.026316
v -0.675544 0.323286 37.026316
v -0.873981 0.239993 37.026316
v -0.977441 0.139585 37.026316
v -0.982174 0.030644 37.026316
v -0.890078 -0.068195 37.026316
v -0.707397 -0.150769 37.026316
v -0.486180 -0.206419 37.026316
v -0.163961 -0.252634 37.026316
v 0.212980 -0.280407 37.026316
v 0.628155 -0.294433 37.026316
v 1.066106 -0.297168 37.026316
v 1.501309 -0.291223 37.026316
v 1.855856 -0.282486 37.026316
v 2.229677 -0.270607 37.026316
v 2.542705 -0.258729 37.026316
v 2.778866 -0.248452 37.026316
v 2.925798 -0.241376 37.026316
v 2.975671 -0.238840 37.026316
v 2.764174 -0.175011 40.210526
v 2.731884 -0.164083 40.210526
v 2.614068 -0.125146 40.210526
v 2.414980 -0.062538 40.210526
v 2.143531 0.016802 40.210526
v 1.812198 0.104765 40.210526
v 1.492286 0.180548 40.210526
v 1.092984 0.261703 40.210526
v 0.684199 0.326807 40.210526
v 0.282710 0.366600 40.210526
v -0.088890 0.371809 40.210526
v -0.409334 0.342063 40.210526
v -0.630158 0.292239 40.210526
v -0.813261 0.212760 40.210526
v -0.908085 0.118476 40.210526
v -0.911251 0.017386 40.210526
v -0.824727 -0.073247 40.210526
v -0.654374 -0.147777 40.210526
v -0.448583 -0.196903 40.210526
v -0.149225 -0.236145 40.210526
v 0.200676 -0.257667 40.210526
v 0.585884 -0.266011 40.210526
v 0.992087 -0.263628 40.210526
v 1.395645 -0.253225 40.210526
v 1.724367 -0.241138 40.210526
v 2.070930 -0.225921 40.210526
v 2.361111 -0.211389 40.210526
v 2.580021 -0.199204 40.210526
v 2.716212 -0.190991 40.210526
v 2.762437 -0.188078 40.210526
v 2.568719 -0.135141 43.394737
v 2.538624 -0.125312 43.394737
v 2.428827 -0.090320 43.394737
v 2.243321 -0.034151 43.394737
v 1.990450 0.036840 43.394737
v 1.681883 0.115245 43.394737
v 1.384042 0.182452 43.394737
v 1.012420 0.253862 43.394737
v 0.632152 0.310272 43.394737
v 0.258910 0.343249 43.394737
v -0.086233 0.344404 43.394737
v -0.383522 0.313605 43.394737
v -0.588099 0.265148 43.394737
v -0.757353 0.189525 43.394737
v -0.844478 0.101027 43.394737
v -0.846416 0.007118 43.394737
v -0.765167 -0.076192 43.394737
v -0.606229 -0.143718 43.394737
v -0.414632 -0.187301 43.394737
v -0.136240 -0.220777 43.394737
v 0.188913 -0.237298 43.394737
v 0.546724 -0.241230 43.394737
v 0.923926 -0.234992 43.394737
v 1.298592 -0.221334 43.394737
v 1.603744 -0.206852 43.394737
v 1.925433 -0.189287 43.394737
v 2.194769 -0.172916 43.394737
v 2.397942 -0.159432 43.394737
v 2.524336 -0.150456 43.394737
v 2.567235 -0.147293 43.394737
v 2.393611 -0.103137 46.578947
v 2.365495 -0.094249 46.578947
v 2.262924 -0.062630 46.578947
v 2.089653 -0.011957 46.578947
v 1.853510 0.051924 46.578947
v 1.565427 0.122217 46.578947
v 1.287434 0.182176 46.578947
v 0.940687 0.245396 46.578947
v 0.586019 0.294570 46.578947
v 0.238103 0.321981 46.578947
v -0.083362 0.320003 46.578947
v -0.359974 0.288688 46.578947
v -0.550081 0.241746 46.578947
v -0.707049 0.169816 46.578947
v -0.787412 0.086621 46.578947
v -0.788386 -0.000860 46.578947
v -0.711976 -0.077733 46.578947
v -0.563349 -0.139218 46.578947
v -0.384516 -0.178114 46.578947
v -0.124936 -0.206830 46.578947
v 0.178047 -0.219339 46.578947
v 0.511334 -0.219836 46.578947
v 0.862592 -0.210688 46.578947
v 1.211422 -0.194652 46.578947
v 1.495502 -0.178465 46.578947
v 1.794956 -0.159259 46.578947
v 2.045662 -0.141628 46.578947
v 2.234770 -0.127272 46.578947
v 2.352410 -0.117793 46.578947
v 2.392337 -0.114468 46.578947
v 2.232161 -0.076721 49.763158
v 2.205879 -0.068664 49.763158
v 2.110006 -0.040021 49.763158
v 1.948071 0.005810 49.763158
v 1.727420 0.063444 49.763158
v 1.458299 0.126634 49.763158
v 1.198667 0.180272 49.763158
v 0.874917 0.236392 49.763158
v 0.543896 0.279354 49.763158
v 0.219346 0.302083 49.763158
v -0.080306 0.297630 49.763158
v -0.337911 0.266194 49.763158
v -0.514748 0.220892 49.763158
v -0.660489 0.152565 49.763158
v -0.734728 0.074359 49.763158
v -0.734926 -0.007199 49.763158
v -0.663073 -0.078240 49.763158
v -0.524024 -0.134350 49.763158
v -0.357001 -0.169158 49.763158
v -0.114787 -0.193820 49.763158
v 0.167755 -0.203023 49.763158
v 0.478449 -0.200782 49.763158
v 0.805818 -0.189404 49.763158
v 1.130867 -0.171624 49.763158
v 1.395555 -0.154229 49.763158
v 1.674550 -0.133896 49.763158
v 1.908115 -0.115426 49.763158
v 2.084285 -0.100509 49.763158
v 2.193872 -0.090718 49.763158
v 2.231065 -0.087294 49.763158
v 2.065564 -0.054746 52.947368
v 2.041191 -0.047483 52.947368
v 1.952290 -0.021682 52.947368
v 1.802148 0.019540 52.947368
v 1.597602 0.071253 52.947368
v 1.348174 0.127754 52.947368
v 1.107595 0.175488 52.947368
v 0.807680 0.225051 52.947368
v 0.501136 0.262389 52.947368
v 0.200724 0.281056 52.947368
v -0.076457 0.274759 52.947368
v -0.314542 0.243803 52.947368
v -0.477807 0.200608 52.947368
v -0.612138 0.136338 52.947368
v -0.680249 0.063448 52.947368
v -0.679839 -0.012004 52.947368
v -0.612850 -0.077202 52.947368
v -0.483806 -0.128100 52.947368
v -0.329037 -0.159087 52.947368
v -0.104782 -0.180141 52.947368
v 0.156669 -0.186600 52.947368
v 0.444081 -0.182267 52.947368
v 0.746852 -0.169362 52.947368
v 1.047430 -0.150550 52.947368
v 1.292171 -0.132533 52.947368
v 1.550126 -0.111693 52.947368
v 1.766066 -0.092909 52.947368
v 1.928935 -0.077827 52.947368
v 2.030244 -0.067973 52.947368
v 2.064627 -0.064535 52.947368
v 1.854406 -0.034615 56.131579
v 1.832478 -0.028268 56.131579
v 1.752500 -0.005735 56.131579
v 1.617445 0.030210 56.131579
v 1.433484 0.075189 56.131579
v 1.209204 0.124150 56.131579
v 0.992927 0.165303 56.131579
v 0.723380 0.207682 56.131579
v 0.447967 0.239040 56.131579
v 0.178191 0.253684 56.131579
v -0.070558 0.246082 56.131579
v -0.284043 0.216622 56.131579
v -0.430283 0.176703 56.131579
v -0.550405 0.118070 56.131579
v -0.611028 0.052167 56.131579
v -0.610130 -0.015554 56.131579
v -0.549543 -0.073605 56.131579
v -0.433356 -0.118382 56.131579
v -0.294220 -0.145107 56.131579
v -0.092784 -0.162429 56.131579
v 0.141936 -0.166388 56.131579
v 0.399882 -0.160478 56.131579
v 0.671554 -0.146765 56.131579
v 0.941217 -0.127767 56.131579
v 1.160766 -0.109874 56.131579
v 1.392156 -0.089355 56.131579
v 1.585849 -0.070976 56.131579
v 1.731932 -0.056294 56.131579
v 1.822797 -0.046736 56.131579
v 1.853634 -0.043409 56.131579
v 1.512404 -0.016578 59.315789
v 1.494483 -0.011539 59.315789
v 1.429123 0.006333 59.315789
v 1.318766 0.034796 59.315789
v 1.168471 0.070319 59.315789
v 0.985273 0.108835 59.315789
v 0.808650 0.141035 59.315789
v 0.588580 0.173900 59.315789
v 0.363796 0.197741 59.315789
v 0.143713 0.207987 59.315789
v -0.059083 0.200226 59.315789
v -0.232985 0.174862 59.315789
v -0.351987 0.141390 59.315789
v -0.449573 0.092824 59.315789
v -0.498594 0.038701 59.315789
v -0.497436 -0.016517 59.315789
v -0.447666 -0.063474 59.315789
v -0.352639 -0.099258 59.315789
v -0.239012 -0.120177 59.315789
v -0.074641 -0.133036 59.315789
v 0.116788 -0.134791 59.315789
v 0.327094 -0.128351 59.315789
v 0.548545 -0.115462 59.315789
v 0.768324 -0.098275 59.315789
v 0.947244 -0.082305 59.315789
v 1.135804 -0.064119 59.315789
v 1.293636 -0.047915 59.315789
v 1.412668 -0.035025 59.315789
v 1.486704 -0.026660 59.315789
v 1.511830 -0.023753 59.315789
v 3.742757 0.242491 62.500000
v 3.697500 0.251591 62.500000
v 3.532537 0.283531 62.500000
v 3.254328 0.333225 62.500000
v 2.876042 0.392889 62.500000
v 2.415837 0.453789 62.500000
v 1.973076 0.500303 62.500000
v 1.422758 0.540316 62.500000
v 0.862477 0.557134 62.500000
v 0.316368 0.541217 62.500000
v -0.183622 0.484014 62.500000
v -0.608867 0.388702 62.500000
v -0.896844 0.283634 62.500000
v -1.129035 0.145253 62.500000
v -1.240104 0.002240 62.500000
v -1.226891 -0.134079 62.500000
v -1.095024 -0.240858 62.500000
v -0.853350 -0.311528 62.500000
v -0.568468 -0.341956 62.500000
v -0.159625 -0.342943 62.500000
v 0.314040 -0.311400 62.500000
v 0.832848 -0.256057 62.500000
v 1.378003 -0.182679 62.500000
v 1.918218 -0.098987 62.500000
v 2.357632 -0.025963 62.500000
v 2.820466 0.054348 62.500000
v 3.207693 0.123999 62.500000
v 3.499603 0.178184 62.500000
v 3.681100 0.212743 62.500000
v 3.742681 0.224641 62.500000

f 1 2 32 31
f 2 3 33 32
f 3 4 34 33
f 4 5 35 34
f 5 6 36 35
f 6 7 37 36
f 7 8 38 37
f 8 9 39 38
f 9 10 40 39
f 10 11 41 40
f 11 12 42 41
f 12 13 43 42
f 13 14 44 43
f 14 15 45 44
f 15 16 46 45
f 16 17 47 46
f 17 18 48 47
f 18 19 49 48
f 19 20 50 49
f 20 21 51 50
f 21 22 52 51
f 22 23 53 52
f 23 24 54 53
f 24 25 55 54
f 25 26 56 55
f 26 27 57 56
f 27 28 58 57
f 28 29 59 58
f 29 30 60 59
f 31 32 62 61
f 32 33 63 62
f 33 34 64 63
f 34 35 65 64
f 35 36 66 65
f 36 37 67 66
f 37 38 68 67
f 38 39 69 68
f 39 40 70 69
f 40 41 71 70
f 41 42 72 71
f 42 43 73 72
f 43 44 74 73
f 44 45 75 74
f 45 46 76 75
f 46 47 77 76
f 47 48 78 77
f 48 49 79 78
f 49 50 80 79
f 50 51 81 80
f 51 52 82 81
f 52 53 83 82
f 53 54 84 83
f 54 55 85 84
f 55 56 86 85
f 56 57 87 86
f 57 58 88 87
f 58 59 89 88
f 59 60 90 89
f 61 62 92 91
f 62 63 93 92
f 63 64 94 93
f 64 65 95 94
f 65 66 96 95
f 66 67 97 96
f 67 68 98 97
f 68 69 99 98
f 69 70 100 99
f 70 71 101 100
f 71 72 102 101
f 72 73 103 102
f 73 74 104 103
f 74 75 105 104
f 75 76 106 105
f 76 77 107 106
f 77 78 108 107
f 78 79 109 108
f 79 80 110 109
f 80 81 111 110
f 81 82 112 111
f 82 83 113 112
f 83 84 114 113
f 84 85 115 114
f 85 86 116 115
f 86 87 117 116
f 87 88 118 117
f 88 89 119 118
f 89 90 120 119
f 91 92 122 121
f 92 93 123 122
f 93 94 124 123
f 94 95 125 124
f 95 96 126 125
f 96 97 127 126
f 97 98 128 127
f 98 99 129 128
f 99 100 130 129
f 100 101 131 130
f 101 102 132 131
f 102 103 133 132
f 103 104 134 133
f 104 105 135 134
f 105 106 136 135
f 106 107 137 136
f 107 108 138 137
f 108 109 139 138
f 109 110 140 139
f 110 111 141 140
f 111 112 142 141
f 112 113 143 142
f 113 114 144 143
f 114 115 145 144
f 115 116 146 145
f 116 117 147 146
f 117 118 148 147
f 118 119 149 148
f 119 120 150 149
f 121 122 152 151
f 122 123 153 152
f 123 124 154 153
f 124 125 155 154
f 125 126 156 155
f 126 127 157 156
f 127 128 158 157
f 128 129 159 158
f 129 130 160 159
f 130 131 161 160
f 131 132 162 161
f 132 133 163 162
f 133 134 164 163
f 134 135 165 164
f 135 136 166 165
f 136 137 167 166
f 137 138 168 167
f 138 139 169 168
f 139 140 170 169
f 140 141 171 170
f 141 142 172 171
f 142 143 173 172
f 143 144 174 173
f 144 145 175 174
f 145 146 176 175
f 146 147 177 176
f 147 148 178 177
f 148 149 179 178
f 149 150 180 179
f 151 152 182 181
f 152 153 183 182
f 153 154 184 183
f 154 155 185 184
f 155 156 186 185
f 156 157 187 186
f 157 158 188 187
f 158 159 189 188
f 159 160 190 189
f 160 161 191 190
f 161 162 192 191
f 162 163 193 192
f 163 164 194 193
f 164 165 195 194
f 165 166 196 195
f 166 167 197 196
f 167 168 198 197
f 168 169 199 198
f 169 170 200 199
f 170 171 201 200
f 171 172 202 201
f 172 173 203 202
f 173 174 204 203
f 174 175 205 204
f 175 176 206 205
f 176 177 207 206
f 177 178 208 207
f 178 179 209 208
f 179 180 210 209
f 181 182 212 211
f 182 183 213 212
f 183 184 214 213
f 184 185 215 214
f 185 186 216 215
f 186 187 217 216
f 187 188 218 217
f 188 189 219 218
f 189 190 220 219
f 190 191 221 220
f 191 192 222 221
f 192 193 223 222
f 193 194 224 223
f 194 195 225 224
f 195 196 226 225
f 196 197 227 226
f 197 198 228 227
f 198 199 229 228
f 199 200 230 229
f 200 201 231 230
f 201 202 232 231
f 202 203 233 232
f 203 204 234 233
f 204 205 235 234
f 205 206 236 235
f 206 207 237 236
f 207 208 238 237
f 208 209 239 238
f 209 210 240 239
f 211 212 242 241
f 212 213 243 242
f 213 214 244 243
f 214 215 245 244
f 215 216 246 245
f 216 217 247 246
f 217 218 248 247
f 218 219 249 248
f 219 220 250 249
f 220 221 251 250
f 221 222 252 251
f 222 223 253 252
f 223 224 254 253
f 224 225 255 254
f 225 226 256 255
f 226 227 257 256
f 227 228 258 257
f 228 229 259 258
f 229 230 260 259
f 230 231 261 260
f 231 232 262 261
f 232 233 263 262
f 233 234 264 263
f 234 235 265 264
f 235 236 266 265
f 236 237 267 266
f 237 238 268 267
f 238 239 269 268
f 239 240 270 269
f 241 242 272 271
f 242 243 273 272
f 243 244 274 273
f 244 245 275 274
f 245 246 276 275
f 246 247 277 276
f 247 248 278 277
f 248 249 279 278
f 249 250 280 279
f 250 251 281 280
f 251 252 282 281
f 252 253 283 282
f 253 254 284 283
f 254 255 285 284
f 255 256 286 285
f 256 257 287 286
f 257 258 288 287
f 258 259 289 288
f 259 260 290 289
f 260 261 291 290
f 261 262 292 291
f 262 263 293 292
f 263 264 294 293
f 264 265 295 294
f 265 266 296 295
f 266 267 297 296
f 267 268 298 297
f 268 269 299 298
f 269 270 300 299
f 271 272 302 301
f 272 273 303 302
f 273 274 304 303
f 274 275 305 304
f 275 276 306 305
f 276 277 307 306
f 277 278 308 307
f 278 279 309 308
f 279 280 310 309
f 280 281 311 310
f 281 282 312 311
f 282 283 313 312
f 283 284 314 313
f 284 285 315 314
f 285 286 316 315
f 286 287 317 316
f 287 288 318 317
f 288 289 319 318
f 289 290 320 319
f 290 291 321 320
f 291 292 322 321
f 292 293 323 322
f 293 294 324 323
f 294 295 325 324
f 295 296 326 325
f 296 297 327 326
f 297 298 328 327
f 298 299 329 328
f 299 300 330 329
f 301 302 332 331
f 302 303 333 332
f 303 304 334 333
f 304 305 335 334
f 305 306 336 335
f 306 307 337 336
f 307 308 338 337
f 308 309 339 338
f 309 310 340 339
f 310 311 341 340
f 311 312 342 341
f 312 313 343 342
f 313 314 344 343
f 314 315 345 344
f 315 316 346 345
f 316 317 347 346
f 317 318 348 347
f 318 319 349 348
f 319 320 350 349
f 320 321 351 350
f 321 322 352 351
f 322 323 353 352
f 323 324 354 353
f 324 325 355 354
f 325 326 356 355
f 326 327 357 356
f 327 328 358 357
f 328 329 359 358
f 329 330 360 359
f 331 332 362 361
f 332 333 363 362
f 333 334 364 363
f 334 335 365 364
f 335 336 366 365
f 336 337 367 366
f 337 338 368 367
f 338 339 369 368
f 339 340 370 369
f 340 341 371 370
f 341 342 372 371
f 342 343 373 372
f 343 344 374 373
f 344 345 375 374
f 345 346 376 375
f 346 347 377 376
f 347 348 378 377
f 348 349 379 378
f 349 350 380 379
f 350 351 381 380
f 351 352 382 381
f 352 353 383 382
f 353 354 384 383
f 354 355 385 384
f 355 356 386 385
f 356 357 387 386
f 357 358 388 387
f 358 359 389 388
f 359 360 390 389
f 361 362 392 391
f 362 363 393 392
f 363 364 394 393
f 364 365 395 394
f 365 366 396 395
f 366 367 397 396
f 367 368 398 397
f 368 369 399 398
f 369 370 400 399
f 370 371 401 400
f 371 372 402 401
f 372 373 403 402
f 373 374 404 403
f 374 375 405 404
f 375 376 406 405
f 376 377 407 406
f 377 378 408 407
f 378 379 409 408
f 379 380 410 409
f 380 381 411 410
f 381 382 412 411
f 382 383 413 412
f 383 384 414 413
f 384 385 415 414
f 385 386 416 415
f 386 387 417 416
f 387 388 418 417
f 388 389 419 418
f 389 390 420 419
f 391 392 422 421
f 392 393 423 422
f 393 394 424 423
f 394 395 425 424
f 395 396 426 425
f 396 397 427 426
f 397 398 428 427
f 398 399 429 428
f 399 400 430 429
f 400 401 431 430
f 401 402 432 431
f 402 403 433 432
f 403 404 434 433
f 404 405 435 434
f 405 406 436 435
f 406 407 437 436
f 407 408 438 437
f 408 409 439 438
f 409 410 440 439
f 410 411 441 440
f 411 412 442 441
f 412 413 443 442
f 413 414 444 443
f 414 415 445 444
f 415 416 446 445
f 416 417 447 446
f 417 418 448 447
f 418 419 449 448
f 419 420 450 449
f 421 422 452 451
f 422 423 453 452
f 423 424 454 453
f 424 425 455 454
f 425 426 456 455
f 426 427 457 456
f 427 428 458 457
f 428 429 459 458
f 429 430 460 459
f 430 431 461 460
f 431 432 462 461
f 432 433 463 462
f 433 434 464 463
f 434 435 465 464
f 435 436 466 465
f 436 437 467 466
f 437 438 468 467
f 438 439 469 468
f 439 440 470 469
f 440 441 471 470
f 441 442 472 471
f 442 443 473 472
f 443 444 474 473
f 444 445 475 474
f 445 446 476 475
f 446 447 477 476
f 447 448 478 477
f 448 449 479 478
f 449 450 480 479
f 451 452 482 481
f 452 453 483 482
f 453 454 484 483
f 454 455 485 484
f 455 456 486 485
f 456 457 487 486
f 457 458 488 487
f 458 459 489 488
f 459 460 490 489
f 460 461 491 490
f 461 462 492 491
f 462 463 493 492
f 463 464 494 493
f 464 465 495 494
f 465 466 496 495
f 466 467 497 496
f 467 468 498 497
f 468 469 499 498
f 469 470 500 499
f 470 471 501 500
f 471 472 502 501
f 472 473 503 502
f 473 474 504 503
f 474 475 505 504
f 475 476 506 505
f 476 477 507 506
f 477 478 508 507
f 478 479 509 508
f 479 480 510 509
f 481 482 512 511
f 482 483 513 512
f 483 484 514 513
f 484 485 515 514
f 485 486 516 515
f 486 487 517 516
f 487 488 518 517
f 488 489 519 518
f 489 490 520 519
f 490 491 521 520
f 491 492 522 521
f 492 493 523 522
f 493 494 524 523
f 494 495 525 524
f 495 496 526 525
f 496 497 527 526
f 497 498 528 527
f 498 499 529 528
f 499 500 530 529
f 500 501 531 530
f 501 502 532 531
f 502 503 533 532
f 503 504 534 533
f 504 505 535 534
f 505 506 536 535
f 506 507 537 536
f 507 508 538 537
f 508 509 539 538
f 509 510 540 539
f 511 512 542 541
f 512 513 543 542
f 513 514 544 543
f 514 515 545 544
f 515 516 546 545
f 516 517 547 546
f 517 518 548 547
f 518 519 549 548
f 519 520 550 549
f 520 521 551 550
f 521 522 552 551
f 522 523 553 552
f 523 524 554 553
f 524 525 555 554
f 525 526 556 555
f 526 527 557 556
f 527 528 558 557
f 528 529 559 558
f 529 530 560 559
f 530 531 561 560
f 531 532 562 561
f 532 533 563 562
f 533 534 564 563
f 534 535 565 564
f 535 536 566 565
f 536 537 567 566
f 537 538 568 567
f 538 539 569 568
f 539 540 570 569
f 541 542 572 571
f 542 543 573 572
f 543 544 574 573
f 544 545 575 574
f 545 546 576 575
f 546 547 577 576
f 547 548 578 577
f 548 549 579 578
f 549 550 580 579
f 550 551 581 580
f 551 552 582 581
f 552 553 583 582
f 553 554 584 583
f 554 555 585 584
f 555 556 586 585
f 556 557 587 586
f 557 558 588 587
f 558 559 589 588
f 559 560 590 589
f 560 561 591 590
f 561 562 592 591
f 562 563 593 592
f 563 564 594 593
f 564 565 595 594
f 565 566 596 595
f 566 567 597 596
f 567 568 598 597
f 568 569 599 598
f 569 570 600 599